<svg xmlns="http://www.w3.org/2000/svg" width="515" height="202" fill="none" viewBox="0 0 515 202"><g filter="url(#a)"><rect width="507" height="194" x="4" fill="#000" rx="15" shape-rendering="crispEdges"/><rect width="505" height="192" x="5" y="1" stroke="#888" stroke-opacity=".28" stroke-width="2" rx="14" shape-rendering="crispEdges"/><path fill="#f6f6f6" d="M250.892 159.627h-23.714a.39.39 0 0 0-.364.258l-5.628 15.807a.06.06 0 0 1-.025.032.1.1 0 0 1-.042.013h-13.618a.473.473 0 0 1-.442-.629l24.453-68.679a.344.344 0 0 1 .319-.225h13.96a.473.473 0 0 1 .442.315l24.728 68.505a.53.53 0 0 1-.062.489.53.53 0 0 1-.437.229h-13.646a.63.63 0 0 1-.599-.443q-1.025-3.28-4.334-12.898c-.229-.68-.297-1.561-.448-2.325a.564.564 0 0 0-.543-.449m-12.207-11.584q6.16.005 7.94.011a.297.297 0 0 0 .238-.119.3.3 0 0 0 .042-.263 5351 5351 0 0 0-6.809-20.512c-.482-1.454-.666-2.813-1.03-4.222q-.068-.26-.353-.259-.291 0-.358.259c-.364 1.409-.555 2.768-1.036 4.217a5196 5196 0 0 0-6.854 20.5.288.288 0 0 0 .041.261.285.285 0 0 0 .233.121q1.78-.006 7.946.006M305.113 165.124v9.945a.34.34 0 0 1-.071.207.33.33 0 0 1-.181.118q-7.935 1.977-15.853.612-7.81-1.341-10.191-8.029-.828-2.325-.728-8.631.168-10.096-.123-21.983a.483.483 0 0 0-.482-.466h-7.245a.614.614 0 0 1-.616-.618v-9.259a.39.39 0 0 1 .38-.393l7.778-.202a.426.426 0 0 0 .414-.427v-11.59a1.26 1.26 0 0 1 .728-1.14l12.347-5.682a.307.307 0 0 1 .437.275l.482 18.637a.1.1 0 0 0 .033.071q.031.03.073.03h11.748a.157.157 0 0 1 .157.157v9.759a.376.376 0 0 1-.364.376l-11.451.298a.35.35 0 0 0-.347.354q-.09 13.779-.124 21.393c-.016 2.943.672 5.166 3.685 5.812q3.069.657 5.863.286 2.559-.331 3.18-.359a.45.45 0 0 1 .332.123.45.45 0 0 1 .139.326M308.288 156.084c-1.692-13.572 3.398-27.616 18.534-30.013 16.149-2.549 28.888 5.823 30.714 22.258q.767 6.924-1.63 13.684c-2.928 8.271-9.396 12.949-17.991 14.28-9.128 1.415-18.731-.528-24.756-7.755q-3.903-4.683-4.871-12.454m13.948-4.908c-.017 6.867 1.747 14.74 10.382 14.757s10.437-7.845 10.448-14.712c.017-6.867-1.747-14.74-10.381-14.757-8.635-.022-10.438 7.845-10.449 14.712M483.867 139.356a.24.24 0 0 1-.034.116.23.23 0 0 1-.085.086.24.24 0 0 1-.115.036.25.25 0 0 1-.118-.024q-7.067-3.493-14.912-3.381c-2.464.034-5.784.371-6.882 2.74-1.131 2.426.414 4.521 2.794 5.301 7.369 2.42 20.45 2.858 22.796 13.409 2.52 11.337-5.196 17.446-15.27 18.895q-12.134 1.746-23.389-2.785a.665.665 0 0 1-.409-.612v-10.371a.55.55 0 0 1 .573-.551.54.54 0 0 1 .278.09c5.163 3.47 12.375 4.543 18.523 4.251 3.847-.185 7.649-2.836 4.738-7.036q-.79-1.134-2.923-1.718-2.157-.59-9.648-2.375-1.434-.343-4.642-1.949c-6.552-3.279-8.926-8.883-7.341-15.891 1.534-6.794 7.923-10.567 14.463-11.28q11.25-1.23 21.883 2.594a.26.26 0 0 1 .168.258zM377.739 132.203a.21.21 0 0 0 .148.153.2.2 0 0 0 .205-.058c.868-.932 1.399-1.567 2.351-2.089q6.53-3.577 13.815-3.801c4.58-.141 10.012 1.488 12.52 5.71a.6.6 0 0 0 .384.279.59.59 0 0 0 .462-.088c6.725-4.61 15.611-7.412 23.512-4.565 5.454 1.971 8.103 7.362 8.366 12.921q.162 3.47.095 14.318-.084 13.398.101 20.625a.269.269 0 0 1-.073.186.26.26 0 0 1-.185.077h-12.974a.625.625 0 0 1-.627-.612q-.307-11.898 0-28.642c.129-7.16-5.051-8.665-10.88-7.137q-2.704.707-5.941 2.134a.35.35 0 0 0-.17.157.34.34 0 0 0-.032.224q.482 2.375.448 4.706-.14 10.826-.072 28.609a.5.5 0 0 1-.144.357.506.506 0 0 1-.355.148H395.82a.557.557 0 0 1-.555-.55q-.162-14.947-.011-29.227c.045-4.234-1.181-7.311-5.918-7.524-4.032-.18-6.546.831-10.404 2.33a.49.49 0 0 0-.314.461v33.954a.567.567 0 0 1-.566.568h-13.153a.263.263 0 0 1-.263-.264v-48.324a.187.187 0 0 1 .179-.186l10.936-.387a.856.856 0 0 1 .868.663z"/><path fill="#f9bd16" d="m286.394 16.993-12.33.086a1.25 1.25 0 0 0-1.24 1.261l.082 11.69a1.25 1.25 0 0 0 1.257 1.244l12.33-.086a1.25 1.25 0 0 0 1.24-1.261l-.082-11.69a1.25 1.25 0 0 0-1.257-1.244M232.57 76.298a.31.31 0 0 0-.028.326.31.31 0 0 0 .28.168l31.358-.82a.7.7 0 0 1 .705.562 43.4 43.4 0 0 1 .784 11.887.365.365 0 0 1-.358.337L213.745 90.1a.72.72 0 0 1-.745-.69q-.051-1.158-.135-9.4-.017-1.443.835-2.763c3.494-5.402 6.938-9.512 10.896-15.11q8.697-12.309 18.059-25.645a44 44 0 0 1 2.576-3.284.41.41 0 0 0 .052-.448.4.4 0 0 0-.388-.215c-1.025.084-2.671.387-4.105.41q-11.187.19-12.655.23c-4.53.107-8.914.562-13.086.292a.787.787 0 0 1-.739-.786v-11.86a.47.47 0 0 1 .448-.465l50.004-1.775a.32.32 0 0 1 .229.088.31.31 0 0 1 .096.227v9.922c0 .214-.054.426-.157.617q-1.808 3.409-4.457 7.104c-5.835 8.158-11.121 16.233-16.513 23.88q-7.974 11.32-11.39 15.87M329.151 84.575a.14.14 0 0 0-.018-.081.15.15 0 0 0-.217-.054q-4.272 3.015-9.816 3.65c-6.764.775-12.42.107-17.498-5.155q-4.132-4.29-5.326-8.945c-1.758-6.873-1.786-14.122-.005-20.545 1.814-6.553 6.87-12.185 13.271-14.718 5.801-2.29 13.484-1.931 19.38.523a.69.69 0 0 0 .823-.225q.375-.51.762-.753a.9.9 0 0 1 .593-.134q5.824.662 12.19 2.24a.26.26 0 0 1 .196.253q.146 15.756.112 45.263-.005 7.4-.817 10.057c-1.988 6.502-6.059 11.534-12.778 13.274q-4.525 1.169-6.989 1.415c-7.218.719-15.919-.162-22.762-3.475a.68.68 0 0 1-.288-.268.68.68 0 0 1-.087-.384l.857-11.022a.298.298 0 0 1 .148-.237.3.3 0 0 1 .283-.016q6.887 3.099 14.715 3.33c3.797.112 6.608.095 9.576-1.775 2.536-1.606 3.191-3.678 3.371-6.805q.28-4.947.324-5.413m-.05-11.393v-21.45a.7.7 0 0 0-.172-.459.7.7 0 0 0-.433-.237q-2.06-.304-3.298-.573c-2.34-.517-4.782-.562-6.708-.258q-6.042.937-7.767 6.856-2.032 6.973.263 13.285 1.927 5.29 7.588 5.716c3.78.281 6.165-.724 10.23-2.437a.48.48 0 0 0 .297-.443M273.906 38.413l12.829-.331a.8.8 0 0 1 .585.228.8.8 0 0 1 .244.58v49.02a.807.807 0 0 1-.807.809h-12.828a.81.81 0 0 1-.807-.809V39.221a.807.807 0 0 1 .784-.809"/><path fill="#fba602" d="M167.571 82.385c-1.692 2.465-3.355 4.627-5.118 7.333q-2.286 3.493-5.662 7.233-6.21 6.883-11.316 11.685-4.536 4.268-10.36 7.844-.934.573-1.864.691a.18.18 0 0 1-.179-.105.178.178 0 0 1 .039-.204q3.45-3.105 6.54-5.509 1.478-1.15 6.725-6.811c1.758-1.892 3.578-3.386 5.051-5.3q1.147-1.5 3.573-4.178c6.254-6.918 10.045-13.246 14.984-21.371q2.766-4.555 4.295-8.782 1.904-5.284 2.867-9.372 1.853-7.894.577-15.262c-.891-5.15-3.461-9.08-8.562-10.674q-5.095-1.601-11.026-.472c-9.894 1.887-19.447 6.137-27.628 11.303a2552 2552 0 0 0-6.103 3.864.28.28 0 0 0-.13.281.29.29 0 0 0 .202.235q.409.113.863.404 5.258 3.426 10.376 7.951a.44.44 0 0 1 .098.508.43.43 0 0 1-.457.24c-1.125-.209-2.066-.894-3.007-1.438q-4.737-2.757-8.197-5.924a1.3 1.3 0 0 1-.32-.444 1.9 1.9 0 0 1-.145-.735.269.269 0 0 0-.426-.22q-3.343 2.51-7.498 5.599-2.43 1.807-4.21 3.622a.2.2 0 0 0-.047.089.2.2 0 0 0 .009.1q.02.048.061.08.043.03.094.034c.638.04 1.478-.438 2.279-.472 6.26-.292 10.242-.505 14.531.247a.51.51 0 0 1 .363.27q.052.106.048.22a.44.44 0 0 1-.064.212q-.05.079-.302.096-11.709.97-14.766 1.179a48 48 0 0 1-3.545.084 2.93 2.93 0 0 0-1.719.545c-1.321.943-2.514 2.24-3.947 3.358a75 75 0 0 0-8.344 7.58l-8.96 9.546a55 55 0 0 0-2.217 2.622q-.873 1.106-3.908 3.515c-.358.28-.812.202-1.165.36a.68.68 0 0 0-.37.41c-.755 2.296-3.017 4.486-3.936 6.445q-.784 1.674-3.981 5.953c-3.427 4.587-6.272 9.197-8.26 14.397a.5.5 0 0 0 .297.651c3.92 1.404 5.953 2.241 9.906 3.251q11.927 3.05 24.526 4.33c1.635.168 3.713.926 5.42.819a.276.276 0 0 0 .14-.499q-1.063-.775-5.37-4.695a62 62 0 0 1-5.14-5.222 526 526 0 0 1-14.856-17.89 1.3 1.3 0 0 1 .023-1.64l2.021-2.436a.823.823 0 0 1 1.288.028c1.518 2.005 2.682 4.037 4.485 6.194q5.04 6.058 11.927 13.437a133 133 0 0 0 13.003 12.123 3.54 3.54 0 0 0 2.178.803q3.986.084 9.704.348 1.025.045 1.713.539a.14.14 0 0 1 .05.065.14.14 0 0 1-.037.152.14.14 0 0 1-.074.035l-1.54.276-8.355.763a.17.17 0 0 0-.091.037.17.17 0 0 0-.054.084.2.2 0 0 0 .005.099.16.16 0 0 0 .062.078l5.885 4.301q1.45.466 2.094 1.157 6.597 4.683 12.123 7.586 3.925 2.066 9.357 4.615 9.637 4.515 19.576 5.947a.938.938 0 0 1 .762 1.23q-.572 1.762.157 3.835a.25.25 0 0 1-.04.225.2.2 0 0 1-.093.069q-.055.023-.114.015c-5.308-.652-10.633-2.482-16.787-5.065-7.7-3.229-13.859-5.964-20.187-10.091a131 131 0 0 0-7.15-4.34q-2.789-1.572-6.944-4.644a231 231 0 0 0-6.831-4.829.585.585 0 0 0-.706.028q-.767.612-1.825.466c-2.934-.415-6.087-.359-9.128-.668q-9.658-.982-17.868-2.667c-4.849-1-9.189-2.392-15.712-4.256a.337.337 0 0 0-.392.168q-3.17 5.862-3.483 12.578-.32 6.968 2.75 11.028c4.143 5.48 11.31 5.447 17.666 4.649 7.565-.949 15.376-4.127 23.093-7.187q5.532-2.196 11.949-6.048c.303-.18.659-.244 1.002-.179l.146.022a.261.261 0 0 1 .198.339.24.24 0 0 1-.086.116q-3.153 2.375-9.648 6.806-4.356 2.976-9.469 5.121c-7.615 3.2-14.9 5.873-22.779 6.642-4.345.427-10.096-.651-13.472-3.728-3.125-2.847-5.382-6.098-5.645-10.366q-.677-11.033 3.993-21.152a.675.675 0 0 0-.32-.893 70 70 0 0 1-10.224-6.092.274.274 0 0 1-.034-.416 7.2 7.2 0 0 0 1.725-2.745.201.201 0 0 1 .155-.133.2.2 0 0 1 .106.007.2.2 0 0 1 .091.058q1.826 1.988 4.027 3.055c1.237.601 3.97 1.449 5.392 2.892a.446.446 0 0 0 .578.043.46.46 0 0 0 .133-.161c2.162-4.476 5.096-8.749 8.086-12.836 2.61-3.572 5.247-6.57 7.234-9.805.1-.169.24-.31.41-.41l.862-.522a.3.3 0 0 0 .146-.223.3.3 0 0 0-.085-.248l-.767-.77a1.8 1.8 0 0 1-.32-.432 376 376 0 0 0-5.09-9.192q-1.292-2.268-4.714-9.54-1.109-2.364-1.954-5.486-1.08-3.997-1.523-5.655c-1.932-7.187-2.442-16.11 1.041-22.988 2.654-5.233 10.063-7.48 15.489-7.277 9.944.37 19.923 3.481 28.541 7.934q3.617 1.875 12.419 7.266a.63.63 0 0 1 .291.427.64.64 0 0 1-.123.505l-.011.017a.77.77 0 0 1-.466.292.8.8 0 0 1-.547-.09q-9.816-5.575-12.79-6.75-9.665-3.806-14.217-4.952c-5.392-1.359-12.19-1.858-17.65-.146-4.463 1.398-7.705 5.054-9.138 9.546q-.645 2.016-.616 5.312c.056 7.187 2.492 14.133 5.526 20.619a.31.31 0 0 0 .398.15.3.3 0 0 0 .123-.094q1.059-1.393 2.767-2.134 7.754-3.37 16.653-5.75Q93.168 55.865 99.726 55q1.316-.174 2.856.241a1.06 1.06 0 0 0 .997-.247q2.44-2.245 4.205-3.526c7.8-5.638 11.653-8.496 18.064-12.612 4.463-2.869 9.128-4.885 14.027-7.479 7.369-3.908 16.211-6.356 24.297-7.434 6.859-.916 13.567.662 16.921 7.198q2.509 4.88 1.949 11.388-.74 8.58-4.284 17.777a122.8 122.8 0 0 1-11.187 22.079m-97.758-15.47q2.028 4.582 5.51 10.366c.908 1.51 2.28 5.368 3.937 6.11a.296.296 0 0 0 .417-.222.3.3 0 0 0-.025-.178l-.605-1.314a1.7 1.7 0 0 1 .129-1.65q1.12-1.707 2.76-3.386c2.235-2.286 4.189-4.24 6.54-7.104q5.203-6.339 12.292-11.769a1 1 0 0 0 .397-.646.47.47 0 0 0-.179-.456.47.47 0 0 0-.487-.049q-3.276 1.578-5.784 2.1a55 55 0 0 0-3.26.77c-8.051 2.19-13.679 3.767-20.606 6.979q-.246.119-.448.062-.285-.079-.37-.056a.33.33 0 0 0-.212.172.32.32 0 0 0-.006.271"/><path fill="#fba602" d="M142.311 55.55a.1.1 0 0 1-.043-.035.1.1 0 0 1-.011-.055.09.09 0 0 1 .076-.073c3.388.09 5.113.045 7.935.59q10.152 1.949 20.097 5.879a.44.44 0 0 1 .268.306.47.47 0 0 1-.089.401l-.134.158a.753.753 0 0 1-.829.236q-6.686-2.324-10.499-3.14-9.06-1.942-16.771-4.267M139.556 58.06q.408.124.672.32 7.705 5.688 11.457 10.136 7.318 8.674 7.609 9.046c.656.847 2.083 3.133 1.747 4.183a.72.72 0 0 1-.967.455.74.74 0 0 1-.315-.242c-2.721-3.672-5.023-6.794-7.878-10.04q-.588-.668-8.842-9.742c-1.131-1.247-3.097-2.544-3.746-3.796a.223.223 0 0 1 .263-.32M140.161 122.258c-2.509.275-6.042.753-8.377.118a.1.1 0 0 1-.053-.032.1.1 0 0 1-.022-.058.095.095 0 0 1 .069-.095q5.56-1.848 6.266-1.938 11.127-1.493 22.908-4.205c4.166-.96 8.237-2.516 11.692-3.454 4.384-1.19 9.665-4.054 12.98-5.952q5.811-3.318 10.264-7.816 1.209-1.23 3.006-4.554c1.557-2.88 1.591-5.75.157-9.023-2.822-6.446-7.447-9.844-12.968-13.673a58 58 0 0 1-4.922-3.824q1.579-.444 3.18.427 7.599 4.139 13.428 9.27 1.864 1.645 4.558 5.245c3.881 5.183 3.735 12.696-.689 17.744q-4.014 4.581-9.138 7.355-4.503 2.432-10.522 5.178c-2.105.96-4.149 1.241-6.562 2.094q-1.815.646-4.726 1.331-4.25 1.01-4.771 1.213-2.206.858-4.138 1.1-1.843.23-4.2.803a108 108 0 0 1-17.42 2.746M64.108 67.954l.016.017a.73.73 0 0 1 .139.499.72.72 0 0 1-.228.461q-1.014.938-1.389 1.151-3.147 1.791-9.133 6.126-6.412 4.65-10.387 10.67a1.97 1.97 0 0 1-1.797.875l-.521-.04a.71.71 0 0 1-.604-.444.71.71 0 0 1 .128-.74 83 83 0 0 0 3.925-4.852c1.277-1.701 4.065-4.2 6.328-5.8q4.21-2.976 6.02-4.004 4.624-2.628 6.567-4.06a.667.667 0 0 1 .936.141"/><path fill="#fba602" d="M166.311 90.24a.26.26 0 0 1 .051-.131.27.27 0 0 1 .25-.108.3.3 0 0 1 .13.054c1.237.972 2.772 2.797 3.819 4.532q3.444 5.705 5.862 11.432a.83.83 0 0 1-.071.774.823.823 0 0 1-.684.366h-.224a1.7 1.7 0 0 1-1.54-.983 139 139 0 0 0-6.91-13.01q-.834-1.398-.683-2.925M181.206 131.793a.14.14 0 0 1-.058.003.14.14 0 0 1-.097-.058.14.14 0 0 1-.025-.052l-.022-.09c-1.136-4.165-2.117-8.19-2.727-11.193s-.799-4.739-.526-4.827l1.545-.421c.136-.041.382.326.724 1.081s.773 1.881 1.269 3.316a140 140 0 0 1 1.62 5.045 232 232 0 0 1 1.723 6.005l.023.09a.15.15 0 0 1-.101.18z"/><g clip-path="url(#b)"><g filter="url(#c)"><path fill="url(#d)" d="M180.658 161.122c8.878.085 16.142-6.806 16.224-15.392s-7.05-15.614-15.928-15.699-16.143 6.806-16.225 15.391c-.081 8.586 7.05 15.615 15.929 15.7"/></g><path fill="url(#e)" d="M180.674 159.394c7.928.076 14.413-6.049 14.486-13.68.072-7.632-6.295-13.88-14.223-13.956-7.927-.076-14.413 6.049-14.485 13.681-.073 7.631 6.295 13.879 14.222 13.955"/></g><g clip-path="url(#f)"><g filter="url(#g)"><path fill="url(#h)" d="M117.809 106.267c11.647.112 21.175-8.928 21.282-20.19s-9.247-20.482-20.894-20.594c-11.647-.111-21.176 8.928-21.283 20.19s9.248 20.483 20.895 20.594"/></g><path fill="url(#i)" d="M117.83 104.001c10.399.1 18.906-7.935 19.002-17.946.095-10.01-8.258-18.206-18.657-18.306s-18.906 7.935-19.001 17.946 8.257 18.207 18.656 18.306"/></g><g clip-path="url(#j)"><g filter="url(#k)"><path fill="url(#l)" d="M37.781 111.066c6.958.067 12.65-5.333 12.715-12.062S44.97 86.768 38.013 86.702c-6.958-.067-12.65 5.333-12.714 12.061-.064 6.729 5.524 12.237 12.482 12.303"/></g><path fill="url(#m)" d="M37.794 109.713c6.213.059 11.295-4.741 11.352-10.721S44.213 88.115 38 88.055c-6.212-.06-11.294 4.74-11.351 10.721s4.933 10.877 11.145 10.937"/></g></g><defs><radialGradient id="d" cx="0" cy="0" r="1" gradientTransform="matrix(16.0764 .15382 -.14792 15.5454 180.806 145.576)" gradientUnits="userSpaceOnUse"><stop offset=".78" stop-color="#ffb000" stop-opacity="0"/><stop offset=".9" stop-color="#ff9a00" stop-opacity=".16"/><stop offset=".97" stop-color="#ff7a00" stop-opacity=".24"/><stop offset="1" stop-color="#ff6500" stop-opacity="0"/></radialGradient><radialGradient id="e" cx="0" cy="0" r="1" gradientTransform="matrix(14.3539 .13734 -.13148 13.8181 180.806 145.576)" gradientUnits="userSpaceOnUse"><stop stop-color="#fefefe"/><stop offset=".52" stop-color="#fefefe"/><stop offset=".66" stop-color="#fff6bf"/><stop offset=".78" stop-color="#ffd24a"/><stop offset=".88" stop-color="#fa0"/><stop offset=".94" stop-color="#ff8a00"/><stop offset=".985" stop-color="#ff6a00" stop-opacity=".72"/><stop offset="1" stop-color="#ff6a00" stop-opacity="0"/></radialGradient><radialGradient id="h" cx="0" cy="0" r="1" gradientTransform="matrix(21.0885 .20178 -.19403 20.3919 118.003 85.875)" gradientUnits="userSpaceOnUse"><stop offset=".78" stop-color="#ffb000" stop-opacity="0"/><stop offset=".9" stop-color="#ff9a00" stop-opacity=".16"/><stop offset=".97" stop-color="#ff7a00" stop-opacity=".24"/><stop offset="1" stop-color="#ff6500" stop-opacity="0"/></radialGradient><radialGradient id="i" cx="0" cy="0" r="1" gradientTransform="matrix(18.829 .18016 -.17247 18.1261 118.003 85.875)" gradientUnits="userSpaceOnUse"><stop stop-color="#fefefe"/><stop offset=".52" stop-color="#fefefe"/><stop offset=".66" stop-color="#fff6bf"/><stop offset=".78" stop-color="#ffd24a"/><stop offset=".88" stop-color="#fa0"/><stop offset=".94" stop-color="#ff8a00"/><stop offset=".985" stop-color="#ff6a00" stop-opacity=".72"/><stop offset="1" stop-color="#ff6a00" stop-opacity="0"/></radialGradient><radialGradient id="l" cx="0" cy="0" r="1" gradientTransform="matrix(12.5984 .12054 -.11592 12.1823 37.897 98.884)" gradientUnits="userSpaceOnUse"><stop offset=".78" stop-color="#ffb000" stop-opacity="0"/><stop offset=".9" stop-color="#ff9a00" stop-opacity=".16"/><stop offset=".97" stop-color="#ff7a00" stop-opacity=".24"/><stop offset="1" stop-color="#ff6500" stop-opacity="0"/></radialGradient><radialGradient id="m" cx="0" cy="0" r="1" gradientTransform="matrix(11.2486 .10763 -.10304 10.8287 37.897 98.884)" gradientUnits="userSpaceOnUse"><stop stop-color="#fefefe"/><stop offset=".52" stop-color="#fefefe"/><stop offset=".66" stop-color="#fff6bf"/><stop offset=".78" stop-color="#ffd24a"/><stop offset=".88" stop-color="#fa0"/><stop offset=".94" stop-color="#ff8a00"/><stop offset=".985" stop-color="#ff6a00" stop-opacity=".72"/><stop offset="1" stop-color="#ff6a00" stop-opacity="0"/></radialGradient><filter id="a" width="515" height="202" x="0" y="0" color-interpolation-filters="sRGB" filterUnits="userSpaceOnUse"><feFlood flood-opacity="0" result="BackgroundImageFix"/><feColorMatrix in="SourceAlpha" result="hardAlpha" values="0 0 0 0 0 0 0 0 0 0 0 0 0 0 0 0 0 0 127 0"/><feOffset dy="4"/><feGaussianBlur stdDeviation="2"/><feComposite in2="hardAlpha" operator="out"/><feColorMatrix values="0 0 0 0 0 0 0 0 0 0 0 0 0 0 0 0 0 0 0.25 0"/><feBlend in2="BackgroundImageFix" result="effect1_dropShadow_1324_114"/><feBlend in="SourceGraphic" in2="effect1_dropShadow_1324_114" result="shape"/></filter><filter id="c" width="36.954" height="35.892" x="162.329" y="127.63" color-interpolation-filters="sRGB" filterUnits="userSpaceOnUse"><feFlood flood-opacity="0" result="BackgroundImageFix"/><feBlend in="SourceGraphic" in2="BackgroundImageFix" result="shape"/><feGaussianBlur result="effect1_foregroundBlur_1324_114" stdDeviation="1.2"/></filter><filter id="g" width="46.979" height="45.586" x="94.513" y="63.082" color-interpolation-filters="sRGB" filterUnits="userSpaceOnUse"><feFlood flood-opacity="0" result="BackgroundImageFix"/><feBlend in="SourceGraphic" in2="BackgroundImageFix" result="shape"/><feGaussianBlur result="effect1_foregroundBlur_1324_114" stdDeviation="1.2"/></filter><filter id="k" width="29.998" height="29.166" x="22.898" y="84.301" color-interpolation-filters="sRGB" filterUnits="userSpaceOnUse"><feFlood flood-opacity="0" result="BackgroundImageFix"/><feBlend in="SourceGraphic" in2="BackgroundImageFix" result="shape"/><feGaussianBlur result="effect1_foregroundBlur_1324_114" stdDeviation="1.2"/></filter><clipPath id="b"><path fill="#fff" d="m164.303 129.872 33.875.324-.306 32.243-33.876-.324z"/></clipPath><clipPath id="f"><path fill="#fff" d="m96.355 65.274 44.436.426-.402 42.294-44.436-.426z"/></clipPath><clipPath id="j"><path fill="#fff" d="m24.965 86.577 26.547.254-.24 25.267-26.548-.254z"/></clipPath></defs></svg>